<svg width="223" height="74" viewBox="0 0 223 74" fill="none" xmlns="http://www.w3.org/2000/svg">
<path d="M63.3218 45.334V20.5278H69.1471L70.0209 24.2172C71.3154 22.7932 72.529 21.79 73.6617 21.2074C74.8268 20.5925 76.0566 20.2851 77.3511 20.2851C77.966 20.2851 78.6132 20.3336 79.2929 20.4307V26.9842C78.3867 26.79 77.3835 26.6929 76.2831 26.6929C74.1795 26.6929 72.2216 27.0651 70.4092 27.8095V45.334H63.3218ZM88.2869 34.6542C88.4163 36.7902 89.0636 38.3436 90.2286 39.3145C91.3937 40.253 93.2222 40.7223 95.7141 40.7223C97.8825 40.7223 100.407 40.3177 103.287 39.5087V44.2175C102.154 44.8 100.795 45.2531 99.2093 45.5767C97.6559 45.9003 96.0378 46.0622 94.3549 46.0622C90.2448 46.0622 87.1056 44.9456 84.9373 42.7126C82.8013 40.4795 81.7334 37.2109 81.7334 32.9066C81.7334 28.7642 82.8013 25.5441 84.9373 23.2463C87.0732 20.9485 90.0345 19.7996 93.8209 19.7996C97.0248 19.7996 99.4844 20.6896 101.2 22.4696C102.947 24.2172 103.821 26.7253 103.821 29.994C103.821 30.7059 103.773 31.515 103.675 32.4212C103.578 33.3273 103.465 34.0717 103.336 34.6542H88.2869ZM93.5782 24.7026C91.9924 24.7026 90.7303 25.1881 89.7917 26.159C88.8856 27.0975 88.3678 28.4729 88.2383 30.2852H97.753V29.46C97.753 26.2884 96.3614 24.7026 93.5782 24.7026ZM112.754 45.9651C111.459 45.9651 110.408 45.5605 109.599 44.7515C108.79 43.9424 108.385 42.8906 108.385 41.5961C108.385 40.3015 108.79 39.2498 109.599 38.4407C110.408 37.6316 111.459 37.2271 112.754 37.2271C114.048 37.2271 115.1 37.6316 115.909 38.4407C116.718 39.2498 117.123 40.3015 117.123 41.5961C117.123 42.8906 116.718 43.9424 115.909 44.7515C115.1 45.5605 114.048 45.9651 112.754 45.9651ZM112.754 28.7318C111.459 28.7318 110.408 28.3273 109.599 27.5182C108.79 26.7091 108.385 25.6573 108.385 24.3628C108.385 23.0683 108.79 22.0165 109.599 21.2074C110.408 20.3984 111.459 19.9938 112.754 19.9938C114.048 19.9938 115.1 20.3984 115.909 21.2074C116.718 22.0165 117.123 23.0683 117.123 24.3628C117.123 25.6573 116.718 26.7091 115.909 27.5182C115.1 28.3273 114.048 28.7318 112.754 28.7318ZM130.093 30.625C127.213 29.5571 125.142 28.2625 123.879 26.7415C122.617 25.1881 121.986 23.2301 121.986 20.8676C121.986 17.8255 123.103 15.3983 125.336 13.586C127.601 11.7736 130.627 10.8675 134.413 10.8675C137.585 10.8675 140.692 11.45 143.734 12.6151V18.1491C140.595 17.1782 137.682 16.6928 134.996 16.6928C131.177 16.6928 129.268 17.9226 129.268 20.3822C129.268 21.2883 129.591 22.0327 130.239 22.6152C130.918 23.1977 132.164 23.8126 133.977 24.4599L137.569 25.7706C140.579 26.8709 142.715 28.1655 143.977 29.6541C145.271 31.1105 145.919 33.0199 145.919 35.3824C145.919 38.7158 144.721 41.3533 142.326 43.2951C139.931 45.2045 136.647 46.1592 132.472 46.1592C130.659 46.1592 128.847 45.9812 127.035 45.6253C125.222 45.3016 123.669 44.8485 122.374 44.266V38.7319C123.993 39.2174 125.724 39.6057 127.569 39.897C129.413 40.1883 131.08 40.3339 132.569 40.3339C134.478 40.3339 135.951 39.9941 136.986 39.3145C138.022 38.6025 138.54 37.5992 138.54 36.3047C138.54 35.3015 138.216 34.5086 137.569 33.9261C136.954 33.3435 135.692 32.6963 133.782 31.9843L130.093 30.625ZM151.451 45.334V9.41114H158.49V31.1105L167.082 20.5278H175.529L165.286 32.3726L176.305 45.334H167.664L158.49 34.0231V45.334H151.451ZM179.899 45.334V20.5278H186.987V45.334H179.899ZM183.443 16.6928C182.213 16.6928 181.226 16.353 180.482 15.6734C179.737 14.9937 179.365 14.0714 179.365 12.9063C179.365 11.7413 179.737 10.8189 180.482 10.1393C181.226 9.45969 182.213 9.11987 183.443 9.11987C184.673 9.11987 185.66 9.45969 186.404 10.1393C187.148 10.8189 187.521 11.7413 187.521 12.9063C187.521 14.0714 187.148 14.9937 186.404 15.6734C185.66 16.353 184.673 16.6928 183.443 16.6928ZM204.897 44.8485C203.538 45.3987 202.081 45.6738 200.528 45.6738C196.159 45.6738 193.974 43.2304 193.974 38.3436V9.41114H201.062V37.7611C201.062 38.6672 201.208 39.3145 201.499 39.7028C201.822 40.0588 202.34 40.2368 203.052 40.2368C203.505 40.2368 204.12 40.1883 204.897 40.0912V44.8485ZM220.683 44.8485C219.324 45.3987 217.868 45.6738 216.314 45.6738C211.945 45.6738 209.761 43.2304 209.761 38.3436V9.41114H216.848V37.7611C216.848 38.6672 216.994 39.3145 217.285 39.7028C217.609 40.0588 218.127 40.2368 218.839 40.2368C219.292 40.2368 219.907 40.1883 220.683 40.0912V44.8485Z" fill="#232F3E"/>
<path d="M95.9496 63V57.3174H97.0592V63H95.9496ZM96.51 56.3086C96.2933 56.3086 96.1214 56.2488 95.9944 56.1293C95.8748 56.0023 95.8151 55.8379 95.8151 55.6361C95.8151 55.4344 95.8748 55.2737 95.9944 55.1542C96.1214 55.0271 96.2933 54.9636 96.51 54.9636C96.7267 54.9636 96.8948 55.0271 97.0144 55.1542C97.1414 55.2737 97.2049 55.4344 97.2049 55.6361C97.2049 55.8379 97.1414 56.0023 97.0144 56.1293C96.8948 56.2488 96.7267 56.3086 96.51 56.3086ZM102.606 63V59.2004C102.606 58.8043 102.524 58.5129 102.359 58.3261C102.203 58.1393 101.952 58.0459 101.608 58.0459C101.018 58.0459 100.439 58.2364 99.8712 58.6175V63H98.7615V57.3174H99.6918L99.8039 57.945C100.514 57.4145 101.261 57.1492 102.046 57.1492C102.591 57.1492 103.006 57.2949 103.29 57.5864C103.574 57.8703 103.716 58.285 103.716 58.8305V63H102.606ZM111.624 63L111.535 62.4172C111.266 62.6488 110.967 62.8281 110.638 62.9552C110.317 63.0822 109.995 63.1457 109.674 63.1457C109.144 63.1457 108.718 62.9963 108.396 62.6974C108.083 62.391 107.926 61.9838 107.926 61.4757C107.926 60.9302 108.12 60.4968 108.508 60.1755C108.897 59.8467 109.42 59.6823 110.078 59.6823C110.511 59.6823 110.982 59.7458 111.49 59.8729V59.1331C111.49 58.7296 111.396 58.4457 111.21 58.2813C111.03 58.1169 110.72 58.0347 110.279 58.0347C109.644 58.0347 108.987 58.1505 108.307 58.3822V57.5976C108.576 57.4556 108.904 57.3473 109.293 57.2725C109.682 57.1903 110.074 57.1492 110.47 57.1492C111.18 57.1492 111.703 57.2987 112.039 57.5976C112.375 57.889 112.543 58.3373 112.543 58.9426V63H111.624ZM109.943 62.3051C110.451 62.3051 110.967 62.1145 111.49 61.7335V60.5902C111.101 60.4931 110.705 60.4445 110.302 60.4445C109.457 60.4445 109.035 60.7695 109.035 61.4196C109.035 61.7036 109.114 61.924 109.271 62.0809C109.428 62.2304 109.652 62.3051 109.943 62.3051ZM116.863 61.4757C116.863 61.2963 116.803 61.1506 116.683 61.0385C116.571 60.9265 116.362 60.8144 116.056 60.7023L115.103 60.3436C114.273 60.0373 113.859 59.5142 113.859 58.7745C113.859 58.2888 114.045 57.8965 114.419 57.5976C114.8 57.2987 115.297 57.1492 115.91 57.1492C116.5 57.1492 117.057 57.2688 117.58 57.5079V58.2925C116.997 58.1057 116.459 58.0123 115.966 58.0123C115.249 58.0123 114.89 58.2551 114.89 58.7408C114.89 58.9351 114.95 59.0883 115.069 59.2004C115.189 59.3125 115.424 59.4357 115.775 59.5702L116.65 59.9065C117.09 60.0784 117.408 60.2838 117.602 60.523C117.797 60.7546 117.894 61.0572 117.894 61.4308C117.894 61.9614 117.696 62.3835 117.3 62.6974C116.904 63.0112 116.377 63.1681 115.719 63.1681C114.98 63.1681 114.337 63.0262 113.791 62.7422V61.9576C114.494 62.1893 115.144 62.3051 115.742 62.3051C116.108 62.3051 116.384 62.2341 116.571 62.0921C116.765 61.9502 116.863 61.7447 116.863 61.4757ZM121.7 61.4757C121.7 61.2963 121.641 61.1506 121.521 61.0385C121.409 60.9265 121.2 60.8144 120.893 60.7023L119.941 60.3436C119.111 60.0373 118.697 59.5142 118.697 58.7745C118.697 58.2888 118.883 57.8965 119.257 57.5976C119.638 57.2987 120.135 57.1492 120.748 57.1492C121.338 57.1492 121.895 57.2688 122.418 57.5079V58.2925C121.835 58.1057 121.297 58.0123 120.804 58.0123C120.086 58.0123 119.728 58.2551 119.728 58.7408C119.728 58.9351 119.788 59.0883 119.907 59.2004C120.027 59.3125 120.262 59.4357 120.613 59.5702L121.488 59.9065C121.928 60.0784 122.246 60.2838 122.44 60.523C122.635 60.7546 122.732 61.0572 122.732 61.4308C122.732 61.9614 122.534 62.3835 122.138 62.6974C121.742 63.0112 121.215 63.1681 120.557 63.1681C119.817 63.1681 119.175 63.0262 118.629 62.7422V61.9576C119.332 62.1893 119.982 62.3051 120.58 62.3051C120.946 62.3051 121.222 62.2341 121.409 62.0921C121.603 61.9502 121.7 61.7447 121.7 61.4757ZM126.292 63.1681C125.44 63.1681 124.775 62.9029 124.297 62.3723C123.819 61.8418 123.579 61.1021 123.579 60.1531C123.579 59.2116 123.819 58.4756 124.297 57.945C124.775 57.4145 125.44 57.1492 126.292 57.1492C127.144 57.1492 127.809 57.4145 128.287 57.945C128.765 58.4756 129.004 59.2116 129.004 60.1531C129.004 61.1021 128.765 61.8418 128.287 62.3723C127.809 62.9029 127.144 63.1681 126.292 63.1681ZM126.292 62.2715C127.345 62.2715 127.872 61.5653 127.872 60.1531C127.872 58.7483 127.345 58.0459 126.292 58.0459C125.238 58.0459 124.712 58.7483 124.712 60.1531C124.712 61.5653 125.238 62.2715 126.292 62.2715ZM134.307 62.787C133.873 63.0112 133.373 63.1233 132.805 63.1233C131.923 63.1233 131.247 62.873 130.776 62.3723C130.313 61.8642 130.081 61.1319 130.081 60.1755C130.081 59.2265 130.32 58.4942 130.799 57.9787C131.284 57.4556 131.968 57.1941 132.85 57.1941C133.35 57.1941 133.821 57.2987 134.262 57.5079V58.3037C133.836 58.1692 133.418 58.1019 133.007 58.1019C132.379 58.1019 131.927 58.2626 131.65 58.5839C131.374 58.8977 131.236 59.4021 131.236 60.097V60.2427C131.236 60.9227 131.374 61.4234 131.65 61.7447C131.934 62.0585 132.379 62.2154 132.984 62.2154C133.388 62.2154 133.829 62.1407 134.307 61.9912V62.787ZM135.584 63V57.3174H136.693V63H135.584ZM136.144 56.3086C135.928 56.3086 135.756 56.2488 135.629 56.1293C135.509 56.0023 135.449 55.8379 135.449 55.6361C135.449 55.4344 135.509 55.2737 135.629 55.1542C135.756 55.0271 135.928 54.9636 136.144 54.9636C136.361 54.9636 136.529 55.0271 136.649 55.1542C136.776 55.2737 136.839 55.4344 136.839 55.6361C136.839 55.8379 136.776 56.0023 136.649 56.1293C136.529 56.2488 136.361 56.3086 136.144 56.3086ZM141.736 63L141.646 62.4172C141.377 62.6488 141.078 62.8281 140.75 62.9552C140.428 63.0822 140.107 63.1457 139.786 63.1457C139.255 63.1457 138.829 62.9963 138.508 62.6974C138.194 62.391 138.037 61.9838 138.037 61.4757C138.037 60.9302 138.231 60.4968 138.62 60.1755C139.008 59.8467 139.532 59.6823 140.189 59.6823C140.622 59.6823 141.093 59.7458 141.601 59.8729V59.1331C141.601 58.7296 141.508 58.4457 141.321 58.2813C141.142 58.1169 140.832 58.0347 140.391 58.0347C139.756 58.0347 139.098 58.1505 138.418 58.3822V57.5976C138.687 57.4556 139.016 57.3473 139.405 57.2725C139.793 57.1903 140.185 57.1492 140.581 57.1492C141.291 57.1492 141.814 57.2987 142.151 57.5976C142.487 57.889 142.655 58.3373 142.655 58.9426V63H141.736ZM140.055 62.3051C140.563 62.3051 141.078 62.1145 141.601 61.7335V60.5902C141.213 60.4931 140.817 60.4445 140.413 60.4445C139.569 60.4445 139.147 60.7695 139.147 61.4196C139.147 61.7036 139.225 61.924 139.382 62.0809C139.539 62.2304 139.763 62.3051 140.055 62.3051ZM147.501 62.8655C147.135 63.0075 146.72 63.0785 146.257 63.0785C145.196 63.0785 144.665 62.5479 144.665 61.4869V58.1916H143.634V57.4743L144.699 57.3398L144.867 55.7258H145.775V57.3174H147.456V58.1916H145.775V61.4308C145.775 61.7073 145.834 61.9016 145.954 62.0137C146.081 62.1257 146.294 62.1818 146.593 62.1818C146.899 62.1818 147.202 62.1444 147.501 62.0697V62.8655ZM148.642 63V57.3174H149.752V63H148.642ZM149.202 56.3086C148.986 56.3086 148.814 56.2488 148.687 56.1293C148.567 56.0023 148.507 55.8379 148.507 55.6361C148.507 55.4344 148.567 55.2737 148.687 55.1542C148.814 55.0271 148.986 54.9636 149.202 54.9636C149.419 54.9636 149.587 55.0271 149.707 55.1542C149.834 55.2737 149.897 55.4344 149.897 55.6361C149.897 55.8379 149.834 56.0023 149.707 56.1293C149.587 56.2488 149.419 56.3086 149.202 56.3086ZM153.875 63.1681C153.023 63.1681 152.358 62.9029 151.88 62.3723C151.402 61.8418 151.163 61.1021 151.163 60.1531C151.163 59.2116 151.402 58.4756 151.88 57.945C152.358 57.4145 153.023 57.1492 153.875 57.1492C154.727 57.1492 155.392 57.4145 155.87 57.945C156.348 58.4756 156.587 59.2116 156.587 60.1531C156.587 61.1021 156.348 61.8418 155.87 62.3723C155.392 62.9029 154.727 63.1681 153.875 63.1681ZM153.875 62.2715C154.929 62.2715 155.455 61.5653 155.455 60.1531C155.455 58.7483 154.929 58.0459 153.875 58.0459C152.821 58.0459 152.295 58.7483 152.295 60.1531C152.295 61.5653 152.821 62.2715 153.875 62.2715ZM161.8 63V59.2004C161.8 58.8043 161.718 58.5129 161.554 58.3261C161.397 58.1393 161.146 58.0459 160.803 58.0459C160.212 58.0459 159.633 58.2364 159.065 58.6175V63H157.956V57.3174H158.886L158.998 57.945C159.708 57.4145 160.455 57.1492 161.24 57.1492C161.785 57.1492 162.2 57.2949 162.484 57.5864C162.768 57.8703 162.91 58.285 162.91 58.8305V63H161.8ZM172.141 63L170.931 58.5503L169.731 63H168.61L166.75 57.3174H167.916L169.193 61.868L170.404 57.3174H171.513L172.724 61.924L174.035 57.3174H175.167L173.262 63H172.141ZM176.137 63V57.3174H177.247V63H176.137ZM176.698 56.3086C176.481 56.3086 176.309 56.2488 176.182 56.1293C176.063 56.0023 176.003 55.8379 176.003 55.6361C176.003 55.4344 176.063 55.2737 176.182 55.1542C176.309 55.0271 176.481 54.9636 176.698 54.9636C176.915 54.9636 177.083 55.0271 177.202 55.1542C177.329 55.2737 177.393 55.4344 177.393 55.6361C177.393 55.8379 177.329 56.0023 177.202 56.1293C177.083 56.2488 176.915 56.3086 176.698 56.3086ZM182.144 62.8655C181.778 63.0075 181.363 63.0785 180.9 63.0785C179.839 63.0785 179.308 62.5479 179.308 61.4869V58.1916H178.277V57.4743L179.342 57.3398L179.51 55.7258H180.418V57.3174H182.099V58.1916H180.418V61.4308C180.418 61.7073 180.478 61.9016 180.597 62.0137C180.724 62.1257 180.937 62.1818 181.236 62.1818C181.542 62.1818 181.845 62.1444 182.144 62.0697V62.8655ZM187.085 63V59.2004C187.085 58.8043 187.002 58.5129 186.838 58.3261C186.681 58.1393 186.431 58.0459 186.087 58.0459C185.497 58.0459 184.918 58.2364 184.35 58.6175V63H183.24V54.7058H184.35V57.9002C185.06 57.3996 185.784 57.1492 186.524 57.1492C187.07 57.1492 187.484 57.2949 187.768 57.5864C188.052 57.8703 188.194 58.285 188.194 58.8305V63H187.085Z" fill="#232F3E"/>
<path d="M216.855 59.6025C216.366 59.6022 215.888 59.5482 215.421 59.4408C214.953 59.3339 214.595 59.2106 214.345 59.0712C214.192 58.9858 214.097 58.9003 214.06 58.8145C214.021 58.7289 214.003 58.6437 214.003 58.5579L214.003 58.0929C214.003 57.9005 214.074 57.8043 214.216 57.8045C214.27 57.8045 214.327 57.8153 214.387 57.8367C214.446 57.8583 214.525 57.8905 214.623 57.9331C214.938 58.0722 215.28 58.1796 215.65 58.2546C216.019 58.3298 216.389 58.3676 216.759 58.3678C217.346 58.3684 217.799 58.2673 218.12 58.0643C218.441 57.8617 218.602 57.5731 218.602 57.1988C218.602 56.9422 218.518 56.7285 218.35 56.5573C218.182 56.3861 217.869 56.2255 217.413 56.0754L216.06 55.6573C215.375 55.443 214.878 55.1328 214.569 54.7261C214.259 54.3198 214.105 53.8758 214.105 53.3948C214.106 53.0101 214.19 52.6708 214.359 52.3767C214.527 52.083 214.751 51.832 215.028 51.6237C215.305 51.4156 215.629 51.2582 215.998 51.1514C216.368 51.0452 216.759 50.9918 217.173 50.9922C217.379 50.9924 217.589 51.006 217.8 51.0327C218.013 51.0598 218.214 51.0948 218.404 51.1374C218.594 51.1806 218.77 51.2287 218.933 51.2823C219.097 51.3361 219.227 51.3896 219.325 51.4429C219.455 51.518 219.547 51.593 219.602 51.6676C219.656 51.7426 219.683 51.8441 219.683 51.9725L219.683 52.4053C219.682 52.5977 219.611 52.6939 219.47 52.6939C219.394 52.6937 219.275 52.6562 219.112 52.5812C218.579 52.3458 217.981 52.2275 217.318 52.2269C216.786 52.2266 216.373 52.312 216.079 52.4824C215.785 52.6533 215.638 52.9258 215.638 53.2998C215.638 53.5563 215.73 53.7729 215.915 53.9496C216.099 54.1261 216.442 54.2948 216.941 54.4555L218.262 54.8734C218.936 55.088 219.416 55.3824 219.704 55.7565C219.992 56.1313 220.135 56.5588 220.135 57.0397C220.135 57.4353 220.053 57.7909 219.89 58.1059C219.726 58.4212 219.5 58.6908 219.212 58.915C218.924 59.1392 218.578 59.3102 218.176 59.4274C217.774 59.5444 217.334 59.6029 216.855 59.6025ZM204.887 59.3518C204.724 59.3518 204.604 59.3223 204.529 59.2634C204.452 59.2047 204.387 59.0845 204.333 58.9025L202.154 51.8132C202.1 51.6316 202.073 51.5086 202.073 51.4444C202.073 51.295 202.149 51.22 202.302 51.22L203.215 51.2209C203.389 51.2209 203.511 51.2507 203.582 51.3094C203.652 51.3682 203.714 51.4887 203.769 51.6703L205.329 57.7327L206.785 51.6729C206.829 51.4913 206.889 51.3711 206.965 51.3122C207.041 51.2537 207.166 51.2242 207.34 51.2243L208.09 51.2249C208.264 51.2251 208.389 51.2548 208.465 51.3135C208.541 51.3724 208.601 51.4926 208.644 51.6744L210.106 57.817L211.726 51.6771C211.78 51.4955 211.843 51.3753 211.914 51.3164C211.984 51.2579 212.107 51.2283 212.281 51.2285L213.145 51.2293C213.297 51.2295 213.373 51.3044 213.373 51.454C213.373 51.4968 213.368 51.5449 213.357 51.5983C213.346 51.6519 213.324 51.7265 213.291 51.8227L211.035 58.9082C210.98 59.09 210.915 59.2102 210.839 59.2687C210.763 59.3274 210.643 59.3568 210.48 59.3566L209.681 59.356C209.507 59.3558 209.382 59.3236 209.306 59.2594C209.23 59.1953 209.17 59.0724 209.127 58.8904L207.681 52.9885L206.241 58.8881C206.197 59.0699 206.137 59.1926 206.061 59.2568C205.985 59.3208 205.86 59.3528 205.686 59.3526L204.887 59.3518ZM197.404 58.3515C197.708 58.3517 198.029 58.2959 198.366 58.184C198.703 58.0721 198.996 57.8772 199.247 57.5993C199.399 57.4287 199.505 57.2334 199.565 57.0144C199.625 56.7955 199.656 56.5308 199.656 56.2208L199.656 55.8359C199.384 55.7715 199.099 55.7208 198.8 55.6829C198.501 55.6454 198.211 55.6263 197.928 55.6261C197.308 55.6255 196.846 55.748 196.542 55.9936C196.237 56.2394 196.084 56.5919 196.084 57.0515C196.084 57.4792 196.198 57.8028 196.426 58.0219C196.654 58.2413 196.98 58.3511 197.404 58.3515ZM201.188 56.9596C201.188 57.3018 201.223 57.5745 201.293 57.7774C201.363 57.9808 201.464 58.2 201.594 58.4352C201.637 58.51 201.659 58.5795 201.659 58.6437C201.659 58.7399 201.599 58.8308 201.48 58.9162L200.892 59.3003C200.805 59.3537 200.724 59.3804 200.648 59.3804C200.55 59.3802 200.457 59.3376 200.371 59.2519C200.24 59.1235 200.129 58.9819 200.037 58.8266C199.944 58.6717 199.849 58.4926 199.752 58.2892C199.023 59.1331 198.109 59.5546 197.011 59.5537C196.229 59.5531 195.609 59.3335 195.153 58.8948C194.697 58.456 194.469 57.8679 194.47 57.1302C194.47 56.3501 194.754 55.7223 195.319 55.247C195.885 54.7719 196.646 54.5345 197.603 54.5353C197.918 54.5356 198.247 54.5601 198.589 54.6083C198.932 54.6566 199.287 54.7238 199.657 54.8096L199.658 54.1361C199.658 53.4414 199.512 52.9523 199.219 52.6687C198.925 52.3852 198.42 52.243 197.703 52.2425C197.376 52.2421 197.042 52.282 196.7 52.3619C196.357 52.4418 196.023 52.5456 195.697 52.6738C195.544 52.7378 195.436 52.7777 195.37 52.7936C195.305 52.8097 195.256 52.8177 195.224 52.8177C195.093 52.8175 195.028 52.7213 195.028 52.5288L195.029 52.0798C195.029 51.9302 195.05 51.8232 195.094 51.7592C195.137 51.6951 195.225 51.6311 195.355 51.5671C195.681 51.4069 196.073 51.2685 196.53 51.1511C196.986 51.0341 197.47 50.9755 197.981 50.9759C199.09 50.9769 199.902 51.2261 200.418 51.7237C200.934 52.2211 201.191 52.9724 201.191 53.9773L201.188 56.9596Z" fill="#232F3E"/>
<path fill-rule="evenodd" clip-rule="evenodd" d="M218.613 64.1147C215.544 66.3383 211.095 67.5185 207.265 67.5151C201.898 67.5108 197.066 65.5554 193.411 62.3045C193.124 62.0493 193.38 61.7012 193.726 61.8991C197.67 64.1605 202.549 65.5245 207.589 65.5289C210.989 65.5317 214.727 64.841 218.168 63.4093C218.687 63.1935 219.121 63.7462 218.613 64.1147Z" fill="#FF9900"/>
<path fill-rule="evenodd" clip-rule="evenodd" d="M219.891 62.6823C219.499 62.1881 217.298 62.446 216.309 62.5616C216.009 62.5969 215.963 62.3392 216.233 62.153C217.99 60.9418 220.867 61.2944 221.201 61.7007C221.538 62.1104 221.11 64.9472 219.463 66.2995C219.21 66.5074 218.969 66.3961 219.082 66.1214C219.453 65.2123 220.284 63.1768 219.891 62.6823Z" fill="#FF9900"/>
<path fill-rule="evenodd" clip-rule="evenodd" d="M38.6085 0C39.3783 0 39.8594 0.833332 39.4745 1.5L28.3375 20.7897C27.9526 21.4564 26.9904 21.4564 26.6055 20.7897L15.4686 1.5C15.0837 0.833333 15.5648 0 16.3346 0H38.6085Z" fill="#EC7211"/>
<path fill-rule="evenodd" clip-rule="evenodd" d="M1.73205 23.1564C0.96225 23.1564 0.481124 22.3231 0.866024 21.6564L12.003 2.3667C12.3879 1.70003 13.3501 1.70003 13.735 2.3667L24.8719 21.6564C25.2568 22.3231 24.7757 23.1564 24.0059 23.1564H1.73205Z" fill="#EC7211"/>
<path fill-rule="evenodd" clip-rule="evenodd" d="M38.6085 50.4443C39.3783 50.4443 39.8594 51.2777 39.4745 51.9443L28.3375 71.2341C27.9526 71.9007 26.9904 71.9007 26.6055 71.2341L15.4686 51.9443C15.0837 51.2777 15.5648 50.4443 16.3346 50.4443H38.6085Z" fill="#232F3E"/>
<path fill-rule="evenodd" clip-rule="evenodd" d="M1.73205 73.6017C0.96225 73.6017 0.481124 72.7684 0.866024 72.1017L12.003 52.812C12.3879 52.1453 13.3501 52.1453 13.735 52.812L24.8719 72.1017C25.2568 72.7684 24.7757 73.6017 24.0059 73.6017H1.73205Z" fill="#232F3E"/>
<path fill-rule="evenodd" clip-rule="evenodd" d="M38.6085 48.3786C39.3783 48.3786 39.8594 47.5453 39.4745 46.8786L28.3375 27.5889C27.9526 26.9222 26.9904 26.9222 26.6055 27.5889L15.4686 46.8786C15.0837 47.5453 15.5648 48.3786 16.3346 48.3786H38.6085Z" fill="#232F3E"/>
<path fill-rule="evenodd" clip-rule="evenodd" d="M1.73205 25.2222C0.96225 25.2222 0.481124 26.0555 0.866024 26.7222L12.003 46.0119C12.3879 46.6786 13.3501 46.6786 13.735 46.0119L24.8719 26.7222C25.2568 26.0555 24.7757 25.2222 24.0059 25.2222H1.73205Z" fill="#EC7211"/>
</svg>
